<?xml version='1.0' encoding='utf-8'?>
<svg xmlns="http://www.w3.org/2000/svg" width="717px" height="513px" version="1.1" viewBox="167 793 717 513"> <g> <g fill="#caeaf9"> <path d="m166.96 792.46c-0.11926 0-0.2337 0.0474-0.31806 0.1315-0.08434 0.0846-0.1317 0.19897-0.1317 0.3181l5.1e-4 513.19c0 0.2483 0.20136 0.4497 0.44971 0.4497l717.09 1e-3c0.1193 0 0.2338-0.0474 0.318-0.1316 0.08437-0.0845 0.13173-0.199 0.13173-0.3179l-3.6e-4 -513.19c0-0.24844-0.20142-0.44984-0.44971-0.44984l-717.09-5e-4z"/> </g> <g fill-opacity=".43922"> <path d="m795.93 1232.8-2.4987 0.6979q-3.9482 0.4687-11.275 0.8955-21.276 1.0311-29.586 1.1871-24.793 0.729-63.105 1.2914-38.576 0.5614-83.242 0.8262-22.333 0.1323-46.187 0.1907-10.976 0.0755-74.99 0.0078-49.891-0.1481-90.903-0.5504-49.322-0.5589-56.523-0.7468-17.176-0.2963-32.132-0.6564-59.777-1.4494-56.376-3.3565 2.6179-0.9864 21.285-1.7964 9.0172-0.4059 21.414-0.7704 4.0861-0.2083 44.794-0.9997 7.4169-0.1936 58.41-0.7787 20.81-0.2064 43.143-0.339 44.665-0.2648 95.42-0.2329 52.497 0.0488 95.599 0.3994 52.097 0.4795 59.852 0.6515 18.286 0.2649 34.352 0.593 32.567 0.6643 51.037 1.4843 20.362 0.8567 21.512 2.0024"/> </g> <g> <path d="m426.91 1192.1q-4.0248-0.3342-7.7447 1.1778-1.6628 0.6937-3.2144 1.7306l-5.5588 4.0925q-1.3752 0.8165-3.7364 1.4319-8.6703 2.4635-12.228 3.0294-1.8232 0.3184-3.4132 0.4133-6.1806 0.0668-6.5278 0.1936-2.0949 0.2234-3.941 0.8628-5.8123 2.089-10.819 6.4517-7.3934 6.222-3.9192 16.285 2.2748 7.8851 11.845 8.7406 5.5294 0.3659 12.412-2.0862l6.4094-2.4799q18.407-8.1693 21.64-9.2645 7.8912-3.0846 22.002-7.6078l3.9649-18.504q-10.463-3.9654-17.1-4.4623z"/> <path d="m451.77 1208.2q-29.505 5.6602-35.509 10.877-5.5057 3.8603-7.5244 9.9066-1.6349 5.8244 2.016 7.9224 2.5796 1.5961 9.72 1.6305 17.636-0.4199 33.111-1.2927 28.15-1.7027 32.3-4.8051 2.5956-1.7999-0.30578-4.7121l-33.718-19.475z"/> </g> <g fill="#fff"> <path d="m459.29 1179.9-2.1738 19.899 25.116 7.1929 1.9789-23.401-24.896-3.6871z"/> <path d="m431.77 1196.1q-1.637-0.0836-2.5397 0.3427-0.84598 0.3319-2.0682 1.7402-4.6155 5.0173-4.8959 8.504-0.30682 3.7256 2.2343 7.2924 1.7434 2.4699 5.1802 2.5482 3.1932 0.2089 12.113-1.3534l1.2654-16.945q-8.1813-1.963-11.254-2.1277z"/> </g> <g fill="#ffb38f"> <path d="m551.08 1063.9q-0.97084 0.0122-1.431 1.9031-0.33777 0.9887-0.86407 7.5033-0.4247 3.8948 1.0738 9.4591-2.3342-0.9946-2.9562-0.6784-0.94223 0.3961-0.96835 2.0577-0.00129 0.9684 0.39685 1.5723l2.1523 1.8468q0.73602 0.8092 1.2991 1.8972 1.0853 2.066 1.6411 5.1297 0.53014 2.9054 0.53424 7.4228 0.04316 3.5579-0.4604 13.113l12.254-1.1647 0.55915-11.104q2.6214-5.1407 2.9017-8.3759 0.13068-1.2615 0.06374-2.7264 0.00175-0.9183-0.5283-5.3256-0.064-0.7914 0.07436-1.1746 0.10749-0.2611 0.28184-0.3565l1.2673-0.5289q2.4673-1.7506 2.7143-1.7617 0.44536-0.2016 0.9936-0.2427 2.4324 0.24 2.642 0.0107 1.112-0.3781 1.1912-1.1596 0.0524-0.8235-1.849-1.6795-1.7653-0.737-3.539-0.623-1.2702 0.0683-2.6359 0.7147-1.0713 0.4606-3.7897 2.3368-0.3065 0.1771-0.348 0.1064-0.295-0.1413 3.0436-4.5312 6.6478 0.3479 7.192-0.7987 0.4222-0.8794-0.89963-1.7217-1.4116-0.9028-3.8532-1.4452-3.2562-0.6568-5.2212 0.2477-1.9279 0.7843-4.392 4.0084 1.4861-7.0508 2.773-8.9673 0.5556-0.9154 1.3766-1.4676 0.46863-0.4146 2.7355-1.0951 0.3881-0.1697 0.5692-0.5354 0.2899-1.1686-1.3457-1.6133-3.6579-0.5412-6.7387 2.216-2.2804 1.965-5.6382 9.3928-0.268-4.9488-0.29956-8.5392-0.0437-0.8944-0.1433-1.3626-0.4037-1.8773-1.8173-1.961z"/> </g> <g> <path d="m682.15 1079.4q-3.2892-0.2496-5.1413 0.6126-5.2632 3.1314-6.2045 4.398-0.8425 0.9276-1.1255 2.0596-0.18907 0.2943-0.3604 4.1249-0.0894 0.7685-0.3926 1.4455-0.2941 0.6243-0.8522 1.2421-3.2062 2.9175-3.3751 3.5005-0.99894 1.6257-1.3552 4.0145l11.308 30.1q8.163 4.5774 12.38 4.7363 8.8418 0.2394 14.869-9.0194 2.8474-4.6259 4.0985-10.021 0.51785-2.2214 0.77645-5.8151 0.4255-5.009 0.19627-6.9668-0.43797-6.1328-5.4344-10.865-1.8224-1.7934-4.3712-3.7803l-8.6774-6.4189q-1.453-1.1658-2.3692-2.5658-0.6671-0.4921-3.8849-0.7758z"/> </g> <g fill="#33596c"> <path d="m485.8 1085.3q-12.518 0.7594-16.355 12.919-3.3322 6.5796-20.317 88.604l34.46 5.6594q3.0292-29.801 4.9815-38.152 2.376-11.241 5.3957-10.742 2.6516 0.1155 7.0806 9.3734 1.3968 2.1448 12.31 31.02l5.2262 11.742q-20.914 3.1281-31.102 2.5138-4.9459-0.2018-10.782-1.4118l-21.108-5.2921q-5.4867-0.7996-11.958 0.6233-8.0036 17.047-2.6097 28.831 2.1665 5.8868 4.4236 9.5882l67.561 2.4902q15.217 0.9429 26.893 3.8263 8.8564 0.294 28.917-4.0357 12.092-2.7127 14.302-6.0865 0.97164-1.3147 1.0721-3.5402l-1.64-14.113q-1.9343-14.985-4.7153-22.66-2.1808-6.343-6.0162-10.388-1.4564-1.5788-3.5761-3.3095-10.496-7.7689-12.022-9.3562-3.5666-3.1249-7.6286-8.1761l-7.0384-9.5198-19.182-28.169q-6.7703-9.2941-13.022-16.176-14.598-16.013-23.395-16.053z"/> </g> <g> <path d="m567.64 1169.8 13.614 58.319 5.7231-1.3859q0.219-11.23-2.2668-21.393-1.9099-8.5872-9.402-31.411l-7.6508-4.1204z"/> </g> <g fill="#80c49f"> <path d="m666.81 1200.6-0.00598 0.0142q-1.9719 4.5442-4.5383 6.7224-2.2218 2.0126-8.1721 4.0808l12.716-10.817zm-99.865-89.128-17.996 2.9162q0.33087 16.779 1.0553 21.651 0.34677 2.6291 0.8289 4.2417l2.5213 7.3561q1.226 15.628 1.785 15.659 0.01184 5e-4 0.02354-0.0059 1.0384 3.2561 3.951 5.0265l9.5818 4.83 6.504 1.0198 7.8564 43.694 2.522 8.3788-17.517 7.0354q88.902-3.6423 103.89-3.0102 2.3605-0.0247 3.7073-0.7778 14.761-8.7124 27.009-72.807-7.435-9.6516-21.805-18.167l1.2244-3.2704-32.583-10.029-4.8022 2.339q-13.378-2.5598-25.523-3.2457-7.3999-0.4176-14.342-0.1398-1.6468 0.3094-5.0063 2.8617l-24.998 19.454-1.5552-0.7416q-0.57476-4.9754-1.0265-7.1302-2.0116-7.0429-2.6495-10.974l-2.6461-16.105-0.0094-0.0601z"/> </g> <g fill="#fff"> <path d="m643.12 1137.7q-3.0621 8.6695-4.8802 10.342-0.45615 0.5134-1.3518 0.9744-3.2514 1.2111-3.689 1.5609-1.0494 0.5808-2.2679 1.6327l-12.33 13.186q-3.3666 3.2854-6.6796 5.3859-4.5012 2.8685-8.5974 3.4301-1.3391 0.1922-3.0586 0.0345l-5.6687-1.1468q-1.1015-0.1298-1.4104 0.0796-0.45554 0.157-0.7916 1.0082-0.7957 3.894-1.3562 4.5088-0.80494 1.2717-2.5657 1.6778-1.473 0.7791-12.191-0.1422l5.9495 34.072q1.4595 6.9329 6.6017 21.681 31.116-13.838 42.095-20.848 11.228-6.8736 15.485-15.086 2.3723-4.3151 4.1482-10.331l6.0094-23.91q1.3889-5.1449 2.7837-8.5838 3.2916-8.6296 11.41-17.959-11.04 6.2672-15.59 5.7387-4.887 0.026-11.997-7.252z"/> </g> <g fill="#ffb38f"> <path d="m677.43 1093.5q-2.2571-1.0883-3.8954-0.7068-1.6342 0.2965-4.7056 2.3416-15.53 11.231-17.179 15.424-0.51086 0.6374-2.1849 6.0299l-1.9064 4.3581-0.44033 1.5125q-0.5219 1.9448 1.747 4.8495l-5.47 9.5504-0.43946 1.3938 4.2645 3.6849q2.3011 1.5088 3.6796 2.1585 4.1734 2.1251 9.01 0.6259 8.1875-2.6118 18.16-10.197 4.2232 2.4808 7.0708 1.8845 4.1826-0.7616 5.9837-3.8818 1.6795-3.9183-0.50537-6.5267-0.7444-0.7241-2.3537-0.7297l-1.306 0.1167q-3.8897 0.8804-3.6897 0.6556-0.6043 8e-3 -0.5208-0.8081 3.8883-5.8261 5.7717-7.9273 0.6746-0.7704 1.4871-1.4352l2.9694-2.157q0.66888-0.5774 1.0638-1.1363 1.2392-1.7122 0.4576-3.9182-0.8704-2.6229-5.8841-7.0956-6.454-5.5938-11.157-8.0531z"/> <path d="m654.34 1214-21.643 2.1404q-3.1743 8e-4 -4.6832 0.2005-2.7914 0.3319-5.1094 1.3811-2.4126 1.0639-5.7815 3.5607-7.5989 5.973-7.3379 6.1729-1.5032 1.862 1.4253 5.7716 1.5116 1.7277 2.9442-0.8241 0.66734 2.7069 16.862 4.554 6.3288 0.6933 9.7876-1.0736 1.762-0.7631 2.6327-1.9299 0.78051-0.9658 1.583-3.6671 7.0589-0.3851 9.775-1.1355 3.1053-0.778 4.0512-2.4281 1.4868-2.418-0.19545-7.3556-0.35735-1.054-0.9439-1.8839l-3.3378-3.4536z"/> </g> <g fill="#80c49f"> <path d="m582.23 1173.5q-15.414-10.271-21.299-12.583-6.8426-2.9353-9.3124-0.1971-2.249 2.4144-1.7106 7.2091 0.71197 4.6898 3.474 5.7903 0.8448 0.3646 2.1201 0.4928 0.52496 0.0547 1.3234 0.072 4.3539-0.0496 5.1216 0.0513 1.6743 0.108 3.4952 0.5749 4.4751 1.1298 10.728 4.615l6.0369-6.0017z"/> </g> <g fill-opacity=".16078"> <path d="m491.87 1136.6q-9.8401-0.5555-14.111 55.153l5.8289 0.6861v3e-4q3.0237-29.733 4.9734-38.072 2.3092-10.925 5.2264-10.76 0.08445 0.0046 0.16925 0.0185 0.01017 6e-4 0.02015 0.0011 2.6482 0.1497 7.0605 9.3723 1.3968 2.1448 12.31 31.02l5.2262 11.742q-20.726 3.1002-30.918 2.5245-0.0924-0.0051-0.18414-0.0107-0.39896-0.0163-0.80376-0.0391-1.7805-0.1007-3.673-0.3279l-0.00106 3e-4 0.36661-4.3342-5.8507-0.6129q-11.351-2.7517-19.227-3.893l-8.4e-4 5e-4 -0.33806 3.0943-2.3619-0.5919q-1.1795-0.1719-2.4045-0.2412-4.4734-0.2525-9.5537 0.8645-0.8699 1.8529-1.5816 3.6437v7e-4q-0.19955-0.0724-0.39749-0.1426l-7e-4 5e-4q2.7018 4.558 11.433 11.911 68.354-5.3941 68.429-5.3994 0.08575 0.0164 0.16986 0.0211 2.6681 0.1506 3.6257-11.604-14.305-30.958-20.874-41.297-7.6083-12.386-12.418-12.721l-0.08774-0.0056q-0.02504-0.0016-0.04994-0.0031z"/> <path d="m648.11 1190.4q-6e-4 0-0.00126 5e-4l0.00166 3e-4 -4e-4 -8e-4z"/> <path d="m644.4 1198.8v4e-4q-11.594 7.0334-21.595 8.2884-4.5942 0.5915-10.385 0.2643-0.57395-0.0322-1.1596-0.0736-5.5383-0.345-16.679-2.1461l-0.00203 1e-4q12.747 5.5183 17.844 7.0249 3.66 1.1423 6.4251 1.2986 1.4127 0.0796 2.5918-0.0983 3.1336 0.0315 16.358-7.1799l6.5873-7.3579 0.0174-0.0206z"/> <path d="m558.15 1182.1q1.5216 7.5866 3.789 10.258 1.1048 1.3198 2.7174 2.078 1.4674 0.7204 4.3482 1.2782l-10.846-13.606-0.00734-0.0089z"/> <path d="m608.71 1180q-0.3962-0.0205 0.7641 1.378 5.5515 6.2305 9.7152 9.7189 3.2258 2.6123 6.7064 3.3875 1.6492 0.4305 4.3087 0.5805 3.9416 0.2225 10.102-0.171l7.8019-4.4994-0.0027 3e-4q-7.1834 1.9012-13.282 1.5567-2.6578-0.1501-5.1097-0.7265-3.9854-0.9112-8.84-3.5215-2.1807-1.1701-4.654-2.7548-1.7428-1.0958-6.2339-4.2445-0.6439-0.4355-0.9747-0.6025-0.1986-0.0954-0.2991-0.1017z"/> <path d="m607.3 1142.4q-6.8512 13.72-11.478 18.332-2.7227 2.7544-5.8786 3.8588-1.269 0.4411-2.6621 0.6299-0.91528 0.1767-4.6915 0.2425-0.8337 0.0759-1.1255 0.2755-0.36853 0.2365-0.42806 0.5992 0.22317 2.9606-0.38474 3.6568-0.6637 1.1964-2.6977 1.9085-3.7779 1.1916-9.502 0.9044-5.2992-0.3505-8.4668-1.9581-2.6325-1.3164-3.8528-3.9126-0.60434-1.2604-0.8968-2.8489-0.30556-1.6009-0.242-3.915-0.0011-0.047-0.0118-0.0475-0.0177-1e-3 -0.06165 0.1227-1.6814 8.9745 4.2552 12.126 2.7913 1.377 7.5328 1.6446 0.84236 0.0481 1.7462 0.0606 6.4471-0.0148 11.195-1.5309 5.2965-1.7449 3.3145-5.76l0.0019 6e-4q1.2449 0.3857 2.3993 0.4513 2.2572 0.1273 4.169-0.9732 3.0998-1.5132 10.394-8.2389l7.3741-15.629z"/> <path d="m660.45 1148.7-22.413 7.9419-0.0133 0.0094q0.97975 0.0874 1.4486 0.1191 0.2478 0.0176 0.48494 0.031 0.44001 0.0251 0.84376 0.0354 1.1624 0.0315 2.267-0.0694 2.176-0.1955 4.4557-1.0014 4.5265-1.5935 12.908-7.0528l0.01895-0.0132z"/> <path d="m639.35 1136.9q-7.4908 2.0605-7.4461 2.2581 0.0015 0.0179 0.0733 0.0221 0.12494 0.0072 0.4627-0.0279 3.7672-0.5072 4.4803-0.5167 0.44756-0.0277 0.7849-0.0087 0.5387 0.0303 0.79566 0.1809 0.26111 0.1421 0.29554 0.4712 0.0122 0.1207-0.0072 0.2945-0.15364 0.8785-0.1392 1.0481-0.0062 0.3831 0.11667 0.8367 0.19519 0.7829 1.0918 2.3237l-0.50767-6.8708-7.3e-4 -0.0112z"/> <path d="m670.4 1140.6-1.6987 3.3577-0.44386 0.9049q1.1865-1.5973 2.397-1.5287 0.0054 3e-4 0.011 5e-4 0.0354 9e-4 0.0714 3e-3 0.6285 0.0356 1.4956 0.4163 0.77266 0.3278 2.384 1.3197l-4.21-4.4667-0.0065-0.0067z"/> </g> <g fill="#ff5200" fill-opacity=".16471"> <path d="m670.36 1136.7q-9.3383-0.6528-12.84-2.1698-3.5858-1.4181-7.7753-6.0349l-2.8161 13.07 23.382-4.8547z"/> </g> <g fill="#466c7f"> <path d="m623.34 1032.6-29.015 11.827q2.0904 5.1294 4.1813 10.258 14.508-5.913 29.016-11.827-2.0911-5.1293-4.1819-10.258"/> </g> <g fill="#92c6d3"> <path d="m619.79 1012.5-18.295 7.4576-18.295 7.4574q4.7646 11.688 9.529 23.377 18.295-7.4571 36.591-14.914-4.7648-11.689-9.5294-23.378"/> </g> <g fill="#f5bc49"> <path d="m569.14 940.27c17.962-7.3211 38.583 1.3258 45.936 19.364 0.26626 0.65227 0.51796 1.4896 0.76936 2.3269 1.3163 4.6553 1.7023 9.5553 1.1486 14.346-0.5659 5.1995-1.408 13.016-2.1826 19.24-0.3509 2.8727-1.3023 6.7968 2.9924 16.235l-16.733 6.8206-16.772 6.8363c-3.5431-9.7899-6.9509-11.892-9.2103-13.701-4.9051-3.9084-10.956-8.871-14.995-12.192-3.7606-3.0771-6.91-6.8512-9.2238-11.1-0.4055-0.77464-0.8107-1.5491-1.0766-2.2016-7.3527-18.038 1.3862-38.653 19.348-45.974z"/> </g> <g fill="#e2a305"> <path d="m611.18 1014.5 6.6394-2.7062c-4.3105-9.4771-3.3434-13.363-2.9927-16.236 0.775-6.2239 1.6324-14.003 2.1986-19.201 0.5379-4.8296 0.1515-9.7296-1.1641-14.385-0.2517-0.83764-0.5034-1.6749-0.7696-2.327-5.1472-12.627-16.782-20.64-29.443-21.835 9.8892 3.3995 18.35 10.871 22.605 21.31 0.28185 0.69065 0.54935 1.5664 0.79419 2.4961 1.425 4.9241 1.8059 10.14 1.2466 15.247-0.61014 5.5296-1.5256 13.824-2.3291 20.418-0.34196 3.0038-1.3534 7.2203 3.2149 17.219z"/> </g> <g fill="#466c7f"> <path d="m582.87 1029.3c0.20345 0.4987 0.74375 0.7257 1.2424 0.5228l36.691-14.955c0.4987-0.20384 0.7264-0.7441 0.52263-1.243l-0.76678-1.8811c-0.20319-0.49909-0.74325-0.72624-1.2422-0.52284l-36.652 14.94c-0.49915 0.203-0.72645 0.7428-0.52326 1.2421l0.76676 1.8811z"/> <path d="m586.83 1038.6c0.2038 0.4987 0.74403 0.7264 1.2429 0.5229l36.691-14.955c0.49871-0.204 0.72619-0.74405 0.52288-1.2432l-0.7666-1.8802c-0.20313-0.49966-0.74363-0.72681-1.2428-0.52316l-36.652 14.94c-0.49895 0.2027-0.72645 0.7435-0.52289 1.2417l0.7663 1.881z"/> <path d="m589.13 1044.3c0.2034 0.4984 0.74403 0.7263 1.2429 0.5231l36.691-14.956c0.49867-0.2035 0.72587-0.7437 0.52257-1.2428l-0.76677-1.8809c-0.20318-0.4989-0.74343-0.7262-1.2423-0.5228l-36.652 14.94c-0.49917 0.2032-0.72664 0.7435-0.5233 1.2424l0.7664 1.8807z"/> </g> <g fill="#fed96f"> <path d="m552.39 959.45c5.6457-12.282 18.277-16.759 18.792-16.924 1.4512-0.5023 3.0261 0.2883 3.5126 1.7009 0.5022 1.4513-0.28759 3.0269-1.7008 3.5133-0.11525 0.04677-10.911 3.8655-15.594 14.009-3.0808 6.7157-2.7821 14.695 0.8487 23.823 0.51629 1.2661 0.01756 2.6775-1.1323 3.3701-0.13787 0.1008-0.2916 0.1638-0.4065 0.2098-1.4202 0.5791-3.0026-0.1185-3.5812-1.5384-4.2251-10.586-4.4648-20.066-0.73874-28.164z"/> </g> <g fill="#caeaf9"> <path d="m614.34 891.28 1.6503 1.2017q-0.12109-0.1287-0.31663-0.2958-0.3678-0.3055-0.6054-0.4774-0.4303-0.29636-0.7283-0.4285"/> </g> </g> </svg>